<?xml version="1.0" standalone="no"?>
<!DOCTYPE svg PUBLIC "-//W3C//DTD SVG 20010904//EN"
 "http://www.w3.org/TR/2001/REC-SVG-20010904/DTD/svg10.dtd">
<svg version="1.0" xmlns="http://www.w3.org/2000/svg"
 width="200.000000pt" height="200.000000pt" viewBox="0 0 200.000000 200.000000"
 preserveAspectRatio="xMidYMid meet">

<g transform="translate(0.000000,200.000000) scale(0.100000,-0.100000)" stroke="none">
<path d="M417 1736 c-81 -29 -148 -97 -167 -168 -49 -179 256 -712 538 -939
169 -137 425 -279 600 -333 118 -37 196 -36 249 3 54 39 92 90 109 147 20 66
18 88 -12 123 -32 38 -240 179 -336 227 -65 33 -72 34 -106 23 -21 -7 -66 -40
-104 -77 l-68 -65 -39 12 c-91 27 -259 178 -347 311 -65 98 -65 110 -9 172
114 126 114 142 -7 324 -50 76 -117 164 -148 196 -61 63 -81 69 -153 44z"/>
</g>
</svg>
